<svg t="1663555341701" class="icon" viewBox="0 0 1029 1024" version="1.1" xmlns="http://www.w3.org/2000/svg" p-id="6658" width="200" height="200"><path d="M1020.835581 368.09697L864.649723 121.793939C850.944672 100.331313 822.500228 93.99596 800.908309 107.442424L21.401238 600.565657c-21.462626 13.705051-27.79798 42.149495-14.351515 63.612121L163.364874 910.480808c13.705051 21.462626 42.149495 27.79798 63.612122 14.222222l779.50707-493.123232c21.462626-13.575758 27.927273-42.020202 14.351515-63.482828z m-31.159596 37.10707L210.168915 898.327273c-6.852525 4.39596-15.90303 2.327273-20.29899-4.525253L33.684066 647.49899c-4.39596-6.852525-2.327273-15.90303 4.525253-20.29899l779.50707-493.123232c6.852525-4.266667 15.90303-2.327273 20.169697 4.654545l156.185859 246.30303c4.39596 6.593939 2.456566 15.644444-4.39596 20.169697zM317.740632 248.888889l12.929293 31.030303 16.808081-29.090909 33.486868-2.715152-22.626262-24.953535 7.628283-32.711111-30.513132 13.834343-28.832323-17.454545 3.620202 33.486869-25.470707 21.721212 32.969697 6.852525zM516.205278 156.444444l-16.161616-29.60808-13.575757 30.90101-33.09899 6.335353 24.953535 22.367677-4.266667 33.357576 29.220202-16.808081 30.383839 14.480808-6.981818-32.969697 23.014141-24.436364-33.486869-3.620202z m302.545455 495.19192l-26.634344-20.428283-0.129292 33.616161-27.79798 18.876768 32.064646 10.60202 9.438384 32.19394 19.911111-27.151515 33.616162 0.90505-19.781818-27.280808 11.377777-31.547475-32.064646 10.214142zM710.015379 785.454545l-12.670707-31.159596-17.066666 28.961617-33.486869 2.456565 22.367677 25.082829-8.016162 32.581818 30.771717-13.446465 28.703031 17.842424-3.361617-33.486868 25.470708-21.721212-32.711112-7.111112z m-199.240404 91.022223l15.903031 29.737373 13.963636-30.642424 33.09899-5.947475-24.824243-22.755555 4.525253-33.357576-29.349495 16.549495-30.254545-14.610101 6.723232 32.840404-23.272727 24.436364 33.486868 3.749495zM212.366895 378.957576l26.50505 20.816161 0.387879-33.616161 27.927273-18.747475-31.935354-10.731313-9.179798-32.323232-20.169697 26.892929-33.616162-1.163637 19.523233 27.410101-11.636364 31.547475 32.19394-10.084848z m-118.303031 145.066666c-3.490909-142.222222 65.680808-282.892929 194.585859-364.347474S574.257804 75.894949 701.611339 139.765657l30.771717-19.39394c-37.624242-21.074747-78.222222-36.460606-120.888889-46.028283-57.018182-12.8-115.070707-14.480808-172.476767-5.042424-59.474747 9.826263-115.717172 31.288889-167.046465 63.870707-51.329293 32.581818-94.771717 74.084848-129.163636 123.604041-33.228283 47.709091-56.630303 100.977778-69.430303 157.866666-9.567677 42.666667-12.929293 85.850505-9.955556 128.905051l30.642424-19.523233zM931.106288 502.30303c3.620202 142.222222-65.551515 282.892929-194.327272 364.347475-128.905051 81.583838-285.608081 83.911111-412.832323 20.040404l-30.771718 19.523232c37.624242 20.945455 78.222222 36.460606 120.888889 46.028283 57.018182 12.8 115.070707 14.480808 172.476768 5.042424 59.474747-9.826263 115.717172-31.288889 166.917172-63.741414 51.329293-32.581818 94.771717-74.084848 129.163636-123.60404 33.09899-47.838384 56.50101-100.977778 69.30101-157.866667 9.567677-42.666667 12.929293-85.850505 9.955556-128.90505L931.106288 502.30303zM381.482046 306.424242c36.072727-22.755556 75.765657-34.909091 115.717172-37.365656l47.579798-30.125253c-62.836364-7.369697-125.80202 6.723232-180.105051 40.985859-54.173737 34.262626-93.866667 85.20404-114.036363 145.066667l47.579798-30.125253c19.264646-35.038384 47.191919-65.680808 83.264646-88.436364z m262.206061 413.608081c-36.072727 22.884848-75.765657 35.038384-115.587879 37.365657l-47.579798 30.125252c62.836364 7.369697 125.80202-6.723232 180.10505-41.115151 54.173737-34.262626 93.866667-85.20404 114.036364-145.066667l-47.579798 30.125253c-19.264646 35.038384-47.321212 65.680808-83.393939 88.565656z m0 0" p-id="6659" fill="#d81e06"></path><path d="M320.455783 779.248485c-15.256566-25.341414-35.167677-57.406061-59.733333-95.935354-3.490909 50.036364-20.686869 96.840404-51.717172 140.541414l-3.620202-1.292929c25.987879-46.028283 38.658586-94.254545 38.012122-144.937374L186.379016 713.955556c-8.40404 5.30101-15.515152 11.119192-21.591919 17.325252L151.211339 729.212121l98.521212-62.70707-26.50505-41.761617-41.503031 26.375758c-8.40404 5.30101-15.515152 11.119192-21.591919 17.325252l-13.575757-2.068686L219.995177 619.70101c-4.39596-6.852525-13.317172-20.169697-27.022222-40.210101l31.676768-5.818182-5.818182 12.153536L234.605278 610.262626l42.537374-27.022222 5.947475-20.557576 30.125252 4.783839L237.837602 615.434343l27.022222 42.537374 63.741414-40.59798 6.335354-21.979798 31.676767 4.913132-89.729293 57.147474c46.028283 24.048485 93.090909 27.668687 141.187879 10.602021l2.19798 3.361616c-10.989899 6.981818-16.032323 15.385859-15.127273 25.212121-51.975758 3.620202-96.064646-8.662626-132.008081-36.848485l-4.783838 3.10303c32.193939 50.553535 53.39798 83.264646 63.741414 98.133334l-11.636364 18.230303z" p-id="6660" fill="#d81e06"></path><path d="M211.332551 831.612121l-15.256566-5.688889 3.749495-6.593939c23.272727-41.244444 35.684848-84.816162 37.107071-129.939394l-46.933333 29.866667c-7.886869 5.042424-14.739394 10.472727-20.428283 16.290909l-2.327273 2.456565-33.874747-5.30101 107.571717-68.395959L221.4174 633.535354l-36.072728 23.014141c-7.886869 5.042424-14.739394 10.472727-20.428283 16.290909l-2.327272 2.456566-33.745455-5.30101 82.359596-52.363637c-4.783838-7.369697-12.541414-18.747475-23.272727-34.650505l-5.559596-8.274747 53.915151-9.826263-9.826262 20.29899 10.343434 16.161616 35.038384-22.238384 6.852525-23.660606 52.751515 8.274748L247.146693 617.373737l20.169696 31.676768 56.242425-35.814141 7.240404-25.082829 54.173737 8.533334-94.90101 60.121212c22.755556 10.214141 45.769697 15.515152 68.783838 15.515151 18.747475 0 37.882828-3.361616 56.888889-10.214141l4.913132-1.680808 8.40404 13.187879-5.430303 3.490909c-8.791919 5.559596-12.8 11.894949-12.153535 19.264646l0.517171 6.59394-6.593939 0.517171c-6.076768 0.387879-12.024242 0.646465-17.842424 0.646465-39.175758 0-73.955556-9.567677-103.822222-28.444445 26.505051 41.373737 44.476768 69.042424 53.527272 82.101011l2.456566 3.490909-19.523232 30.513131-5.430303-8.921212c-13.187879-21.979798-29.866667-48.872727-49.648485-80.161616-6.206061 44.088889-23.272727 86.109091-50.941414 125.155555l-2.844445 3.749495zM255.680026 663.272727l10.60202 16.549495c21.462626 33.745455 39.822222 63.094949 54.432323 87.143435l3.620202-5.688889c-11.119192-16.161616-31.159596-47.191919-61.284848-94.383839l-51.458586-80.808081 1.939394-3.878787-9.309091 1.680808c10.731313 15.773737 17.583838 25.987879 21.20404 31.80606l30.254546 47.579798z m-5.818182 10.731313v3.490909c0.258586 20.945455-1.810101 41.50303-5.947475 61.672728 5.559596-18.359596 9.050505-37.107071 10.343435-56.371717l0.90505-12.282829-5.30101 3.490909z m80.678788 8.79192c17.713131 5.430303 36.719192 8.145455 57.018182 8.145454 3.620202 0 7.369697-0.129293 11.119192-0.258586 0.517172-3.878788 1.810101-7.628283 4.00808-11.119192-14.739394 3.749495-29.349495 5.559596-43.830303 5.559596-9.438384 0-18.876768-0.775758-28.315151-2.327272z m9.179798-80.161617l-2.585859 8.921213 11.636364-7.49899-9.050505-1.422223z m-52.105051-32.711111l-2.197979 7.369697 9.826262-6.20606-7.628283-1.163637zM361.700228 490.020202l0.90505-2.973737c11.507071-1.810101 21.333333-2.456566 29.349495-1.939394 8.016162 0.517172 13.317172 2.715152 15.773738 6.723232 2.585859 4.008081 3.361616 8.016162 2.327272 12.282828-0.905051 4.137374-2.068687 6.723232-3.361616 7.49899-2.585859 1.680808-6.076768 0.258586-10.731313-4.008081-6.593939-6.076768-18.10101-12.024242-34.262626-17.583838z m121.018182 117.785859c10.731313 2.715152 23.014141 3.10303 36.719192 1.163636 13.705051-1.939394 34.650505-11.248485 62.965656-28.056566 28.185859-16.808081 58.69899-37.882828 91.280808-63.482828l2.19798 3.361616c-11.119192 10.989899-13.963636 20.040404-8.662626 27.022222-30.254545 19.264646-55.337374 34.391919-74.989899 45.381819-19.781818 10.989899-36.719192 18.359596-50.941414 22.238383s-27.151515 4.654545-38.529293 2.327273c-12.024242-1.939394-19.652525-1.680808-22.626263 0.646465-3.10303 2.327273-5.818182 8.921212-8.533333 19.781818-2.585859 10.860606-3.749495 20.040404-3.361616 27.79798l-21.59192-1.810101c4.266667-14.610101 12.412121-30.254545 24.565657-46.674748l-45.511111-71.49899-6.723232 4.266667c-8.40404 5.30101-15.515152 11.119192-21.59192 17.325253l-13.575757-2.068687 37.624242-23.919192 0.387879-12.153536 21.979798 0.387879-3.878788 10.860606 42.79596 67.103031z m109.640404-70.981819c10.60202-5.947475 18.618182-10.60202 23.789899-13.963636 5.171717-3.232323 6.335354-7.240404 3.361616-11.765657L602.702248 484.848485l-45.381818 28.832323 24.307071 38.270707-9.309091 13.058586-27.668687-43.442424-42.537374 27.022222 25.987879 40.856566-10.214142 13.70505c-9.179798-15.773737-21.979798-36.589899-38.529292-62.707071s-29.349495-45.511111-38.4-58.052525l21.850505-1.939394 41.50303-26.375757c-7.111111-8.274747-19.523232-11.507071-37.365657-9.69697l0.258586-3.749495c12.024242-5.30101 24.953535-8.274747 38.917172-9.179798l16.032323-38.917172-64.775757 41.244445c-9.050505 5.688889-16.549495 11.765657-22.49697 17.971717l-13.575758-2.068687 98.521212-62.707071 3.878788-13.187878 27.668687 5.042424c-10.731313 5.947475-24.177778 23.789899-40.727273 53.39798 1.422222 0.775758 2.715152 2.19798 4.266667 4.525252 1.810101 2.844444 1.810101 6.464646 0 10.731313l43.442424-27.668687 1.29293-12.8 20.428282 0.129293-2.973737 10.214142 57.406061 90.246464c6.723232 9.309091 5.042424 19.911111-5.30101 32.064647-5.688889-7.49899-17.325253-7.240404-34.909091 0.646465l-1.939394-3.49091z m-129.163637-49.260606l16.290909 25.470707 42.537374-27.022222-16.290909-25.6-42.537374 27.151515z m19.523233 30.642425l16.290909 25.6 42.537374-27.022223-16.29091-25.470707-42.537373 26.89293z m35.555555-65.680808l16.290909 25.6 45.381819-28.832324-16.29091-25.6-45.381818 28.832324z m19.523233 30.642424l16.290909 25.6 45.381818-28.832323-16.290909-25.6-45.381818 28.832323z" p-id="6661" fill="#d81e06"></path><path d="M475.090127 673.09899l-36.719192-3.10303 2.19798-7.628283c4.137374-14.222222 11.894949-29.349495 23.014141-45.123233l-39.692929-62.319191-1.292929 0.775757c-7.886869 5.042424-14.739394 10.472727-20.428283 16.290909l-2.327273 2.456566-33.745455-5.30101 49.131314-31.288889 0.517171-15.127273 37.365657 0.646465-5.947475 16.420202 39.692929 62.319192c5.042424 1.034343 10.472727 1.551515 16.29091 1.551515 2.456566 0 4.913131-0.129293 7.369696-0.258586-9.050505-15.385859-21.333333-35.426263-36.589898-59.345455-16.290909-25.729293-29.220202-45.123232-38.141415-57.793939l-6.464646-9.179798 31.418182-2.844444 32.452525-20.686869c-6.076768-2.844444-14.610101-3.878788-25.470707-2.715152l-7.757576 0.775758 1.034344-12.412121c-8.533333 5.430303-15.773737 11.119192-21.333334 16.937374l-2.327272 2.456565-33.745455-5.30101 110.933333-70.593939 4.783839-16.420202 50.941414 9.438384-15.515152 8.791919c-6.335354 3.490909-17.583838 14.610101-35.814141 46.545454 0.517172 0.646465 1.034343 1.422222 1.551515 2.19798 0.387879 0.646465 0.905051 1.422222 1.163636 2.327273l30.771718-19.523233 1.680808-15.515151 34.909091 0.258586-4.525253 15.644444 55.725253 87.531313c4.783838 6.723232 8.145455 16.808081 1.034343 29.99596 9.309091-6.852525 18.876768-13.963636 28.444444-21.591919l5.559596-4.39596 8.79192 13.834344-3.620202 3.620202c-8.40404 8.274747-11.119192 14.480808-8.016162 18.488889l4.266667 5.559595-5.947475 3.749495c-30.125253 19.264646-55.466667 34.521212-75.377778 45.511112-20.169697 11.119192-37.753535 18.876768-52.363636 22.884848-15.127273 4.137374-29.090909 4.913131-41.373738 2.456566-4.913131-0.775758-9.179798-1.163636-12.282828-1.163637-3.620202 0-5.042424 0.517172-5.30101 0.646465-0.387879 0.387879-2.973737 3.232323-6.076768 16.032323-2.456566 10.214141-3.490909 19.006061-3.10303 25.987879l0.258586 7.49899z m-19.652525-14.610101l6.335353 0.517172c0.258586-5.947475 1.292929-12.412121 2.844445-19.781819-3.749495 6.593939-6.852525 13.058586-9.179798 19.264647zM428.156794 537.729293l48.096969 75.636364c0.517172-0.387879 1.034343-0.775758 1.680808-1.034344l-45.123232-70.852525 1.939394-5.30101-6.593939-0.129293v1.680808z m230.270707-0.517172c-25.6 19.135354-50.036364 35.684848-72.662627 49.131313-14.99798 8.921212-27.927273 15.644444-38.917171 20.557576 12.153535-4.137374 26.375758-10.60202 42.278788-19.523232 18.488889-10.214141 41.890909-24.436364 69.818181-42.020202-0.775758-2.327273-1.034343-5.042424-0.517171-8.145455zM511.162854 550.787879l24.953535 39.175757-7.757575 10.214142c12.541414-4.008081 29.478788-12.282828 50.682828-24.824243 14.739394-8.791919 30.254545-18.876768 46.416162-30.125252l-1.29293-1.680808c-0.905051-1.292929-2.715152-2.973737-7.369697-2.973738-4.913131 0-11.507071 1.810101-19.652525 5.559596l-5.171717 2.327273-8.791919-13.963636 5.947475-3.361616c10.472727-5.818182 18.359596-10.472727 23.40202-13.705051 1.422222-0.905051 1.810101-1.551515 1.939394-1.680808 0-0.129293-0.129293-0.517172-0.517172-1.163636l-13.317172-20.945455-34.521212 21.979798 23.272727 36.460606-17.454545 24.436364-29.349495-46.028283-31.418182 20.29899zM452.72245 487.951515c8.40404 12.412121 19.264646 28.832323 32.193939 49.131313 13.705051 21.462626 24.953535 39.822222 33.745455 54.561616l1.810101-2.327272-64.646465-101.624243-3.10303 0.258586z m97.745455 30.642424l22.238383 34.909091 1.163637-1.680808-60.767677-95.547475-1.680808 1.034344 39.046465 61.284848z m-58.828283 1.551516l9.309091 14.610101 31.547474-20.169697-9.30909-14.610101-31.547475 20.169697z m128.775757 7.757575c3.232323 0.387879 5.818182 1.292929 7.886869 2.456566 6.335354-9.69697 3.878788-15.385859 1.292929-19.006061l-0.258585-0.387878-58.957576-92.703031 1.422222-4.913131h-6.076768l-0.129293 1.292929 0.129293-0.129293 19.523233 30.642425 39.822222 62.448484c4.525253 7.49899 2.715152 15.127273-4.654546 20.29899zM472.116389 489.50303l9.309091 14.610101 31.547475-20.169697-9.309091-14.610101-31.547475 20.169697z m74.602021-4.395959l9.309091 14.610101 34.521212-21.979798-9.309091-14.610101-34.521212 21.979798z m-19.523233-30.642425l9.309091 14.610101 34.521212-21.979798-9.309091-14.610101-34.521212 21.979798zM492.673965 439.59596c6.076768 1.810101 11.119192 4.654545 14.99798 8.533333l1.292929-3.232323c0.646465-1.551515 1.292929-3.620202 0.517172-4.783839-1.034343-1.680808-1.810101-2.19798-1.810101-2.327272l-1.034343 0.129293c-4.783838 0.258586-9.438384 0.905051-13.963637 1.680808z m15.903031-30.642425l-35.29697 22.49697c9.050505-3.10303 18.618182-5.171717 28.573737-6.076768l6.723233-16.420202z m24.953535-26.892929l-3.232323 7.886869c2.19798-2.715152 4.266667-5.171717 6.335353-7.369697l-3.10303-0.517172z m-129.292929 136.662626c-4.008081 0-8.145455-2.068687-12.8-6.464646-5.818182-5.430303-16.678788-10.860606-31.935354-16.161616l-5.818182-2.068687 3.749495-12.8 4.137374-0.646465c11.894949-1.810101 22.238384-2.456566 30.642424-1.939394 10.214141 0.646465 17.19596 3.878788 20.816162 9.69697 3.490909 5.430303 4.525253 11.248485 3.232323 17.19596-1.422222 6.206061-3.232323 9.69697-6.206061 11.50707-1.680808 1.034343-3.749495 1.680808-5.818181 1.680808z m-21.59192-27.280808c7.49899 3.620202 13.446465 7.369697 17.713132 11.377778 1.163636 1.034343 2.068687 1.810101 2.715151 2.19798 0.129293-0.646465 0.387879-1.422222 0.646465-2.456566 0.517172-2.456566 0.129293-4.783838-1.551515-7.369697-1.292929-2.068687-5.171717-3.361616-10.731313-3.749495h-8.79192z" p-id="6662" fill="#d81e06"></path><path d="M611.364874 329.826263l0.258586-3.749495c14.868687-2.327273 26.246465-2.973737 34.004041-1.939394 7.886869 1.034343 12.929293 3.749495 15.385858 8.145454 2.327273 4.525253 2.973737 8.274747 1.810101 11.377778-1.163636 3.10303-2.456566 5.171717-3.749495 5.947475-2.585859 1.680808-7.369697-0.129293-14.222222-5.30101-8.921212-6.981818-20.040404-11.765657-33.486869-14.480808z m123.862627 122.181818c10.731313 1.163636 21.979798 0.775758 33.874747-1.163637s25.858586-7.49899 41.761616-16.420202c16.032323-8.921212 30.125253-17.325253 42.408081-25.212121 9.050505-5.688889 19.006061-12.412121 29.866667-20.169697 10.860606-7.757576 23.789899-17.066667 38.529293-28.056565l2.197979 3.361616c-11.507071 10.472727-14.99798 19.135354-10.60202 25.858586-29.349495 17.842424-53.785859 32.452525-73.309091 43.70101-19.523232 11.248485-35.814141 18.747475-48.743434 22.626262-12.929293 3.878788-25.212121 5.171717-36.977778 3.749495-11.636364-1.292929-19.006061-1.034343-21.850505 0.775758-2.844444 1.810101-5.559596 7.886869-8.016161 18.230303-2.456566 10.343434-3.749495 21.074747-3.878788 32.323232l-21.074748-3.361616c6.852525-14.739394 14.351515-30.642424 22.49697-47.838384l-44.347475-69.818182-7.757576 4.913132c-8.40404 5.30101-15.515152 11.119192-21.591919 17.325252l-13.575757-2.068687 36.719192-23.40202 4.654545-16.161616 21.074747 3.361616-3.878787 10.860606 42.020202 66.585859z m39.563636-172.347475c-15.90303-24.953535-26.892929-41.50303-32.969697-49.648485l28.185859-4.783838-3.361617 11.765656 21.721213 34.004041 21.20404-13.575758 5.559596-19.00606 27.668687 5.042424-51.2 32.581818 58.440404 91.927273c4.008081 6.206061 5.559596 12.024242 4.913131 17.195959-0.775758 5.30101-3.620202 11.119192-8.533333 17.454546-9.69697-6.593939-24.694949-6.206061-45.252525 1.292929l-2.19798-3.361616c18.488889-9.309091 29.608081-15.256566 33.486868-17.713131 3.878788-2.456566 4.39596-5.947475 1.422223-10.472728l-55.725253-87.660606-66.715151 42.408081c-5.171717 3.232323-10.731313 8.016162-16.678788 14.222222l-13.575758-2.068687 93.608081-59.60404zM713.894167 345.987879l0.258586-3.749495c18.618182-0.646465 32.323232 0 41.244445 1.810101 8.921212 1.939394 14.480808 4.913131 16.678787 9.179798 2.19798 4.137374 2.844444 8.016162 1.810101 11.377778-1.034343 3.490909-2.19798 5.559596-3.361616 6.335353-2.585859 1.680808-7.49899-0.387879-14.739394-6.20606-10.472727-7.757576-24.436364-13.963636-41.890909-18.747475z" p-id="6663" fill="#d81e06"></path><path d="M726.694167 519.240404l-36.977778-5.818182 3.620203-7.757576c7.369697-15.644444 14.222222-30.254545 20.945454-44.60606l-39.046465-61.284849-2.327272 1.422223c-7.886869 5.042424-14.739394 10.472727-20.428283 16.290909l-2.327273 2.456565-33.745454-5.30101 49.131313-31.288889 5.559596-19.264646 34.521212 5.430303-5.559596 15.256566 38.787879 61.026262c9.179798 0.775758 18.876768 0.258586 28.961616-1.422222 10.989899-1.810101 24.436364-7.111111 39.692929-15.644444 12.929293-7.240404 24.694949-14.092929 35.038384-20.557576-7.757576-5.30101-21.20404-4.525253-39.434344 2.068687l-4.913131 1.810101-8.791919-13.834344 6.335354-3.232323c18.230303-9.179798 29.349495-15.127273 32.969696-17.454545 0.129293 0 0.129293-0.129293 0.258586-0.129293-0.129293-0.258586-0.258586-0.775758-0.775757-1.422223l-52.363637-82.230303-61.155555 38.917172c-1.422222 0.905051-2.973737 1.939394-4.525253 3.232323l3.620202-0.129293c4.783838-0.129293 9.438384-0.258586 13.575758-0.258585 12.541414 0 22.109091 0.775758 29.220202 2.197979 10.989899 2.327273 17.842424 6.464646 21.074747 12.412122 2.973737 5.688889 3.749495 11.119192 2.327273 16.161616-1.422222 5.042424-3.490909 8.274747-6.20606 9.955555-1.680808 1.034343-3.490909 1.551515-5.559596 1.551515-4.525253 0-9.567677-2.456566-16.678788-8.016161-9.567677-7.240404-23.014141-13.187879-39.563637-17.713132l-5.171717-1.422222 1.034344-13.058586c-2.715152 2.327273-5.688889 5.042424-8.662627 8.145455l-2.327272 2.456566-27.410101-4.266667c-0.129293 0.646465-0.387879 1.292929-0.646465 1.939394-1.680808 4.654545-3.749495 7.49899-6.335354 9.179798-1.680808 1.034343-3.620202 1.551515-5.688888 1.551515-4.266667 0-9.309091-2.327273-15.903031-7.240404-8.274747-6.464646-18.618182-10.860606-31.030303-13.317172l-5.688889-1.163636 1.163637-14.610101 5.042424-0.775758c10.60202-1.680808 19.781818-2.456566 27.022222-2.456565 3.232323 0 6.206061 0.129293 8.791919 0.517171 10.084848 1.292929 16.808081 5.171717 20.29899 11.507071 1.810101 3.361616 2.844444 6.593939 3.103031 9.567677l96.064646-61.155556c-13.834343-21.591919-23.660606-36.331313-29.220202-43.70101l-6.335354-8.533333 48.743435-8.274748-5.430303 18.876768 16.678788 26.117172 13.70505-8.791919 6.464647-22.367677 49.648484 9.179798-59.345454 38.141414 55.078788 86.49697c4.783838 7.49899 6.723232 14.868687 5.818182 21.591919-0.517172 4.137374-2.19798 8.533333-4.783839 13.058586 7.111111-4.654545 14.739394-9.955556 22.755556-15.644445 10.860606-7.757576 23.789899-17.066667 38.4-27.927273l5.559596-4.137373 8.791919 13.834343-4.008081 3.620202c-4.913131 4.525253-12.670707 12.8-9.567677 17.713132l3.490909 5.559595-5.688888 3.49091c-29.478788 17.971717-54.173737 32.711111-73.438384 43.70101-19.911111 11.377778-36.719192 19.264646-50.036364 23.272727-13.705051 4.137374-27.022222 5.430303-39.563636 4.008081-4.654545-0.517172-8.533333-0.775758-11.636364-0.775758-4.008081 0-5.559596 0.517172-6.076768 0.646465-0.517172 0.517172-2.585859 3.232323-5.30101 14.351515-2.327273 9.826263-3.620202 20.29899-3.620202 30.90101v7.369697z m-18.10101-15.90303l5.430303 0.90505c0.258586-5.430303 0.905051-10.731313 1.680808-15.90303-2.327273 4.913131-4.654545 9.826263-7.111111 14.99798z m-29.220202-121.276768l47.579798 74.860606c0.517172-0.517172 1.163636-0.905051 1.680808-1.292929 0.258586-0.129293 0.517172-0.387879 0.905051-0.517172l-43.70101-68.783838 2.327272-6.464647-7.757575-1.163636-1.034344 3.361616z m225.616162-0.90505c-6.593939 4.783838-12.670707 9.179798-18.230303 13.058585-10.860606 7.757576-21.074747 14.610101-30.125253 20.428283-12.282828 7.757576-26.634343 16.290909-42.666666 25.341414-1.422222 0.775758-2.844444 1.551515-4.137374 2.327273 8.016162-3.749495 16.937374-8.40404 26.634343-13.963636 18.230303-10.472727 41.244444-24.177778 68.525253-40.727273-0.387879-2.19798-0.387879-4.266667 0-6.464646z m-74.731313 10.472727c5.30101 0.129293 9.955556 1.034343 14.222222 2.715151 2.327273-3.620202 3.749495-6.981818 4.137374-9.955555 0.517172-3.620202-0.775758-8.016162-3.878788-12.929293L759.793157 237.89899l1.292929-4.654546-7.886868 1.29293c6.464646 9.309091 15.385859 23.143434 26.892929 41.115151l59.216162 93.090909c2.327273 3.620202 3.232323 7.111111 2.715151 10.343435-0.387879 2.585859-1.680808 6.206061-6.20606 9.050505-1.163636 1.034343-2.973737 2.068687-5.559596 3.490909z m-89.341415-42.925253c7.111111 3.232323 13.317172 6.852525 18.618182 10.860606l0.129293 0.129293c3.749495 2.973737 6.076768 4.266667 7.369697 4.913132 0.129293-0.517172 0.387879-1.034343 0.646465-1.810101 0.517172-1.680808 0-4.008081-1.292929-6.59394-0.517172-1.034343-2.844444-3.749495-12.282829-5.818182-3.490909-0.775758-7.886869-1.292929-13.187879-1.680808z m-106.925252-18.488889c5.430303 2.456566 10.472727 5.559596 14.99798 9.050505 3.620202 2.715152 5.818182 3.878788 6.981818 4.266667 0.258586-0.517172 0.517172-1.163636 0.90505-2.068687 0.517172-1.292929 0-3.361616-1.422222-6.076767-1.680808-3.10303-6.593939-4.266667-10.472727-4.783839-3.10303-0.387879-6.723232-0.517172-10.989899-0.387879z m185.793939-84.298989l-1.680808 5.818181 7.369697-4.783838-5.688889-1.034343z" p-id="6664" fill="#d81e06"></path></svg>